<svg xmlns="http://www.w3.org/2000/svg" viewBox="0 0 600 520" width="600" height="520">
<style>
polygon { fill: none; stroke: #2c3e50; stroke-width: 2; stroke-linejoin: round; }
line { stroke: #2c3e50; stroke-width: 2; }
.penrose-thin { fill: #e74c3c33; }
.penrose-fat { fill: #3498db33; }
</style>
  <polygon points="34.6,14.6 34.6,54.6 0.0,74.6 -34.6,54.6 -34.6,14.6 -0.0,-5.4"/>
  <polygon points="94.6,14.6 94.6,54.6 60.0,74.6 25.4,54.6 25.4,14.6 60.0,-5.4"/>
  <polygon points="154.6,14.6 154.6,54.6 120.0,74.6 85.4,54.6 85.4,14.6 120.0,-5.4"/>
  <polygon points="214.6,14.6 214.6,54.6 180.0,74.6 145.4,54.6 145.4,14.6 180.0,-5.4"/>
  <polygon points="274.6,14.6 274.6,54.6 240.0,74.6 205.4,54.6 205.4,14.6 240.0,-5.4"/>
  <polygon points="334.6,14.6 334.6,54.6 300.0,74.6 265.4,54.6 265.4,14.6 300.0,-5.4"/>
  <polygon points="394.6,14.6 394.6,54.6 360.0,74.6 325.4,54.6 325.4,14.6 360.0,-5.4"/>
  <polygon points="454.6,14.6 454.6,54.6 420.0,74.6 385.4,54.6 385.4,14.6 420.0,-5.4"/>
  <polygon points="514.6,14.6 514.6,54.6 480.0,74.6 445.4,54.6 445.4,14.6 480.0,-5.4"/>
  <polygon points="64.6,49.3 64.6,89.3 30.0,109.3 -4.6,89.3 -4.6,49.3 30.0,29.3"/>
  <polygon points="124.6,49.3 124.6,89.3 90.0,109.3 55.4,89.3 55.4,49.3 90.0,29.3"/>
  <polygon points="184.6,49.3 184.6,89.3 150.0,109.3 115.4,89.3 115.4,49.3 150.0,29.3"/>
  <polygon points="244.6,49.3 244.6,89.3 210.0,109.3 175.4,89.3 175.4,49.3 210.0,29.3"/>
  <polygon points="304.6,49.3 304.6,89.3 270.0,109.3 235.4,89.3 235.4,49.3 270.0,29.3"/>
  <polygon points="364.6,49.3 364.6,89.3 330.0,109.3 295.4,89.3 295.4,49.3 330.0,29.3"/>
  <polygon points="424.6,49.3 424.6,89.3 390.0,109.3 355.4,89.3 355.4,49.3 390.0,29.3"/>
  <polygon points="484.6,49.3 484.6,89.3 450.0,109.3 415.4,89.3 415.4,49.3 450.0,29.3"/>
  <polygon points="544.6,49.3 544.6,89.3 510.0,109.3 475.4,89.3 475.4,49.3 510.0,29.3"/>
  <polygon points="34.6,83.9 34.6,123.9 0.0,143.9 -34.6,123.9 -34.6,83.9 -0.0,63.9"/>
  <polygon points="94.6,83.9 94.6,123.9 60.0,143.9 25.4,123.9 25.4,83.9 60.0,63.9"/>
  <polygon points="154.6,83.9 154.6,123.9 120.0,143.9 85.4,123.9 85.4,83.9 120.0,63.9"/>
  <polygon points="214.6,83.9 214.6,123.9 180.0,143.9 145.4,123.9 145.4,83.9 180.0,63.9"/>
  <polygon points="274.6,83.9 274.6,123.9 240.0,143.9 205.4,123.9 205.4,83.9 240.0,63.9"/>
  <polygon points="334.6,83.9 334.6,123.9 300.0,143.9 265.4,123.9 265.4,83.9 300.0,63.9"/>
  <polygon points="394.6,83.9 394.6,123.9 360.0,143.9 325.4,123.9 325.4,83.9 360.0,63.9"/>
  <polygon points="454.6,83.9 454.6,123.9 420.0,143.9 385.4,123.9 385.4,83.9 420.0,63.9"/>
  <polygon points="514.6,83.9 514.6,123.9 480.0,143.9 445.4,123.9 445.4,83.9 480.0,63.9"/>
  <polygon points="64.6,118.6 64.6,158.6 30.0,178.6 -4.6,158.6 -4.6,118.6 30.0,98.6"/>
  <polygon points="124.6,118.6 124.6,158.6 90.0,178.6 55.4,158.6 55.4,118.6 90.0,98.6"/>
  <polygon points="184.6,118.6 184.6,158.6 150.0,178.6 115.4,158.6 115.4,118.6 150.0,98.6"/>
  <polygon points="244.6,118.6 244.6,158.6 210.0,178.6 175.4,158.6 175.4,118.6 210.0,98.6"/>
  <polygon points="304.6,118.6 304.6,158.6 270.0,178.6 235.4,158.6 235.4,118.6 270.0,98.6"/>
  <polygon points="364.6,118.6 364.6,158.6 330.0,178.6 295.4,158.6 295.4,118.6 330.0,98.6"/>
  <polygon points="424.6,118.6 424.6,158.6 390.0,178.6 355.4,158.6 355.4,118.6 390.0,98.6"/>
  <polygon points="484.6,118.6 484.6,158.6 450.0,178.6 415.4,158.6 415.4,118.6 450.0,98.6"/>
  <polygon points="544.6,118.6 544.6,158.6 510.0,178.6 475.4,158.6 475.4,118.6 510.0,98.6"/>
  <polygon points="34.6,153.2 34.6,193.2 0.0,213.2 -34.6,193.2 -34.6,153.2 -0.0,133.2"/>
  <polygon points="94.6,153.2 94.6,193.2 60.0,213.2 25.4,193.2 25.4,153.2 60.0,133.2"/>
  <polygon points="154.6,153.2 154.6,193.2 120.0,213.2 85.4,193.2 85.4,153.2 120.0,133.2"/>
  <polygon points="214.6,153.2 214.6,193.2 180.0,213.2 145.4,193.2 145.4,153.2 180.0,133.2"/>
  <polygon points="274.6,153.2 274.6,193.2 240.0,213.2 205.4,193.2 205.4,153.2 240.0,133.2"/>
  <polygon points="334.6,153.2 334.6,193.2 300.0,213.2 265.4,193.2 265.4,153.2 300.0,133.2"/>
  <polygon points="394.6,153.2 394.6,193.2 360.0,213.2 325.4,193.2 325.4,153.2 360.0,133.2"/>
  <polygon points="454.6,153.2 454.6,193.2 420.0,213.2 385.4,193.2 385.4,153.2 420.0,133.2"/>
  <polygon points="514.6,153.2 514.6,193.2 480.0,213.2 445.4,193.2 445.4,153.2 480.0,133.2"/>
  <polygon points="64.6,187.8 64.6,227.8 30.0,247.8 -4.6,227.8 -4.6,187.8 30.0,167.8"/>
  <polygon points="124.6,187.8 124.6,227.8 90.0,247.8 55.4,227.8 55.4,187.8 90.0,167.8"/>
  <polygon points="184.6,187.8 184.6,227.8 150.0,247.8 115.4,227.8 115.4,187.8 150.0,167.8"/>
  <polygon points="244.6,187.8 244.6,227.8 210.0,247.8 175.4,227.8 175.4,187.8 210.0,167.8"/>
  <polygon points="304.6,187.8 304.6,227.8 270.0,247.8 235.4,227.8 235.4,187.8 270.0,167.8"/>
  <polygon points="364.6,187.8 364.6,227.8 330.0,247.8 295.4,227.8 295.4,187.8 330.0,167.8"/>
  <polygon points="424.6,187.8 424.6,227.8 390.0,247.8 355.4,227.8 355.4,187.8 390.0,167.8"/>
  <polygon points="484.6,187.8 484.6,227.8 450.0,247.8 415.4,227.8 415.4,187.8 450.0,167.8"/>
  <polygon points="544.6,187.8 544.6,227.8 510.0,247.8 475.4,227.8 475.4,187.8 510.0,167.8"/>
  <polygon points="34.6,222.5 34.6,262.5 0.0,282.5 -34.6,262.5 -34.6,222.5 -0.0,202.5"/>
  <polygon points="94.6,222.5 94.6,262.5 60.0,282.5 25.4,262.5 25.4,222.5 60.0,202.5"/>
  <polygon points="154.6,222.5 154.6,262.5 120.0,282.5 85.4,262.5 85.4,222.5 120.0,202.5"/>
  <polygon points="214.6,222.5 214.6,262.5 180.0,282.5 145.4,262.5 145.4,222.5 180.0,202.5"/>
  <polygon points="274.6,222.5 274.6,262.5 240.0,282.5 205.4,262.5 205.4,222.5 240.0,202.5"/>
  <polygon points="334.6,222.5 334.6,262.5 300.0,282.5 265.4,262.5 265.4,222.5 300.0,202.5"/>
  <polygon points="394.6,222.5 394.6,262.5 360.0,282.5 325.4,262.5 325.4,222.5 360.0,202.5"/>
  <polygon points="454.6,222.5 454.6,262.5 420.0,282.5 385.4,262.5 385.4,222.5 420.0,202.5"/>
  <polygon points="514.6,222.5 514.6,262.5 480.0,282.5 445.4,262.5 445.4,222.5 480.0,202.5"/>
  <polygon points="64.6,257.1 64.6,297.1 30.0,317.1 -4.6,297.1 -4.6,257.1 30.0,237.1"/>
  <polygon points="124.6,257.1 124.6,297.1 90.0,317.1 55.4,297.1 55.4,257.1 90.0,237.1"/>
  <polygon points="184.6,257.1 184.6,297.1 150.0,317.1 115.4,297.1 115.4,257.1 150.0,237.1"/>
  <polygon points="244.6,257.1 244.6,297.1 210.0,317.1 175.4,297.1 175.4,257.1 210.0,237.1"/>
  <polygon points="304.6,257.1 304.6,297.1 270.0,317.1 235.4,297.1 235.4,257.1 270.0,237.1"/>
  <polygon points="364.6,257.1 364.6,297.1 330.0,317.1 295.4,297.1 295.4,257.1 330.0,237.1"/>
  <polygon points="424.6,257.1 424.6,297.1 390.0,317.1 355.4,297.1 355.4,257.1 390.0,237.1"/>
  <polygon points="484.6,257.1 484.6,297.1 450.0,317.1 415.4,297.1 415.4,257.1 450.0,237.1"/>
  <polygon points="544.6,257.1 544.6,297.1 510.0,317.1 475.4,297.1 475.4,257.1 510.0,237.1"/>
</svg>