<svg xmlns="http://www.w3.org/2000/svg" viewBox="0 0 600 560" width="600" height="560">
<style>
polygon { fill: none; stroke: #2c3e50; stroke-width: 2; stroke-linejoin: round; }
line { stroke: #2c3e50; stroke-width: 2; }
.penrose-thin { fill: #e74c3c33; }
.penrose-fat { fill: #3498db33; }
</style>
  <line x1="300.0" y1="20.0" x2="330.3" y2="167.0"/>
  <line x1="300.0" y1="20.0" x2="269.7" y2="167.0"/>
  <line x1="430.0" y1="54.8" x2="382.7" y2="197.3"/>
  <line x1="430.0" y1="54.8" x2="330.3" y2="167.0"/>
  <line x1="525.2" y1="150.0" x2="413.0" y2="249.7"/>
  <line x1="525.2" y1="150.0" x2="382.7" y2="197.3"/>
  <line x1="560.0" y1="280.0" x2="413.0" y2="310.3"/>
  <line x1="560.0" y1="280.0" x2="413.0" y2="249.7"/>
  <line x1="525.2" y1="410.0" x2="382.7" y2="362.7"/>
  <line x1="525.2" y1="410.0" x2="413.0" y2="310.3"/>
  <line x1="430.0" y1="505.2" x2="330.3" y2="393.0"/>
  <line x1="430.0" y1="505.2" x2="382.7" y2="362.7"/>
  <line x1="300.0" y1="540.0" x2="269.7" y2="393.0"/>
  <line x1="300.0" y1="540.0" x2="330.3" y2="393.0"/>
  <line x1="170.0" y1="505.2" x2="217.3" y2="362.7"/>
  <line x1="170.0" y1="505.2" x2="269.7" y2="393.0"/>
  <line x1="74.8" y1="410.0" x2="187.0" y2="310.3"/>
  <line x1="74.8" y1="410.0" x2="217.3" y2="362.7"/>
  <line x1="40.0" y1="280.0" x2="187.0" y2="249.7"/>
  <line x1="40.0" y1="280.0" x2="187.0" y2="310.3"/>
  <line x1="74.8" y1="150.0" x2="217.3" y2="197.3"/>
  <line x1="74.8" y1="150.0" x2="187.0" y2="249.7"/>
  <line x1="170.0" y1="54.8" x2="269.7" y2="167.0"/>
  <line x1="170.0" y1="54.8" x2="217.3" y2="197.3"/>
  <line x1="330.3" y1="167.0" x2="413.0" y2="249.7"/>
  <line x1="382.7" y1="197.3" x2="413.0" y2="310.3"/>
  <line x1="413.0" y1="249.7" x2="382.7" y2="362.7"/>
  <line x1="413.0" y1="310.3" x2="330.3" y2="393.0"/>
  <line x1="382.7" y1="362.7" x2="269.7" y2="393.0"/>
  <line x1="330.3" y1="393.0" x2="217.3" y2="362.7"/>
  <line x1="269.7" y1="393.0" x2="187.0" y2="310.3"/>
  <line x1="217.3" y1="362.7" x2="187.0" y2="249.7"/>
  <line x1="187.0" y1="310.3" x2="217.3" y2="197.3"/>
  <line x1="187.0" y1="249.7" x2="269.7" y2="167.0"/>
  <line x1="217.3" y1="197.3" x2="330.3" y2="167.0"/>
  <line x1="269.7" y1="167.0" x2="382.7" y2="197.3"/>
  <polygon points="300.0,20.0 330.3,167.0 430.0,54.8 382.7,197.3 525.2,150.0 413.0,249.7 560.0,280.0 413.0,310.3 525.2,410.0 382.7,362.7 430.0,505.2 330.3,393.0 300.0,540.0 269.7,393.0 170.0,505.2 217.3,362.7 74.8,410.0 187.0,310.3 40.0,280.0 187.0,249.7 74.8,150.0 217.3,197.3 170.0,54.8 269.7,167.0" fill="#e74c3c11"/>
  <line x1="300.0" y1="-58.0" x2="469.0" y2="-12.7"/>
  <line x1="469.0" y1="-12.7" x2="592.7" y2="111.0"/>
  <line x1="592.7" y1="111.0" x2="638.0" y2="280.0"/>
  <line x1="638.0" y1="280.0" x2="592.7" y2="449.0"/>
  <line x1="592.7" y1="449.0" x2="469.0" y2="572.7"/>
  <line x1="469.0" y1="572.7" x2="300.0" y2="618.0"/>
  <line x1="300.0" y1="618.0" x2="131.0" y2="572.7"/>
  <line x1="131.0" y1="572.7" x2="7.3" y2="449.0"/>
  <line x1="7.3" y1="449.0" x2="-38.0" y2="280.0"/>
  <line x1="-38.0" y1="280.0" x2="7.3" y2="111.0"/>
  <line x1="7.3" y1="111.0" x2="131.0" y2="-12.7"/>
  <line x1="131.0" y1="-12.7" x2="300.0" y2="-58.0"/>
  <line x1="300.0" y1="-136.0" x2="508.0" y2="-80.3"/>
  <line x1="508.0" y1="-80.3" x2="660.3" y2="72.0"/>
  <line x1="660.3" y1="72.0" x2="716.0" y2="280.0"/>
  <line x1="716.0" y1="280.0" x2="660.3" y2="488.0"/>
  <line x1="660.3" y1="488.0" x2="508.0" y2="640.3"/>
  <line x1="508.0" y1="640.3" x2="300.0" y2="696.0"/>
  <line x1="300.0" y1="696.0" x2="92.0" y2="640.3"/>
  <line x1="92.0" y1="640.3" x2="-60.3" y2="488.0"/>
  <line x1="-60.3" y1="488.0" x2="-116.0" y2="280.0"/>
  <line x1="-116.0" y1="280.0" x2="-60.3" y2="72.0"/>
  <line x1="-60.3" y1="72.0" x2="92.0" y2="-80.3"/>
  <line x1="92.0" y1="-80.3" x2="300.0" y2="-136.0"/>
  <line x1="300.0" y1="-214.0" x2="547.0" y2="-147.8"/>
  <line x1="547.0" y1="-147.8" x2="727.8" y2="33.0"/>
  <line x1="727.8" y1="33.0" x2="794.0" y2="280.0"/>
  <line x1="794.0" y1="280.0" x2="727.8" y2="527.0"/>
  <line x1="727.8" y1="527.0" x2="547.0" y2="707.8"/>
  <line x1="547.0" y1="707.8" x2="300.0" y2="774.0"/>
  <line x1="300.0" y1="774.0" x2="53.0" y2="707.8"/>
  <line x1="53.0" y1="707.8" x2="-127.8" y2="527.0"/>
  <line x1="-127.8" y1="527.0" x2="-194.0" y2="280.0"/>
  <line x1="-194.0" y1="280.0" x2="-127.8" y2="33.0"/>
  <line x1="-127.8" y1="33.0" x2="53.0" y2="-147.8"/>
  <line x1="53.0" y1="-147.8" x2="300.0" y2="-214.0"/>
  <line x1="387.5" y1="-46.5" x2="300.0" y2="43.4" opacity="0.5"/>
  <line x1="539.0" y1="41.0" x2="418.3" y2="75.1" opacity="0.5"/>
  <line x1="626.5" y1="192.5" x2="504.9" y2="161.7" opacity="0.5"/>
  <line x1="626.5" y1="367.5" x2="536.6" y2="280.0" opacity="0.5"/>
  <line x1="539.0" y1="519.0" x2="504.9" y2="398.3" opacity="0.5"/>
  <line x1="387.5" y1="606.5" x2="418.3" y2="484.9" opacity="0.5"/>
  <line x1="212.5" y1="606.5" x2="300.0" y2="516.6" opacity="0.5"/>
  <line x1="61.0" y1="519.0" x2="181.7" y2="484.9" opacity="0.5"/>
  <line x1="-26.5" y1="367.5" x2="95.1" y2="398.3" opacity="0.5"/>
  <line x1="-26.5" y1="192.5" x2="63.4" y2="280.0" opacity="0.5"/>
  <line x1="61.0" y1="41.0" x2="95.1" y2="161.7" opacity="0.5"/>
  <line x1="212.5" y1="-46.5" x2="181.7" y2="75.1" opacity="0.5"/>
  <line x1="407.7" y1="-121.8" x2="300.0" y2="-11.2" opacity="0.5"/>
  <line x1="594.2" y1="-14.2" x2="445.6" y2="27.8" opacity="0.5"/>
  <line x1="701.8" y1="172.3" x2="552.2" y2="134.4" opacity="0.5"/>
  <line x1="701.8" y1="387.7" x2="591.2" y2="280.0" opacity="0.5"/>
  <line x1="594.2" y1="574.2" x2="552.2" y2="425.6" opacity="0.5"/>
  <line x1="407.7" y1="681.8" x2="445.6" y2="532.2" opacity="0.5"/>
  <line x1="192.3" y1="681.8" x2="300.0" y2="571.2" opacity="0.5"/>
  <line x1="5.8" y1="574.2" x2="154.4" y2="532.2" opacity="0.5"/>
  <line x1="-101.8" y1="387.7" x2="47.8" y2="425.6" opacity="0.5"/>
  <line x1="-101.8" y1="172.3" x2="8.8" y2="280.0" opacity="0.5"/>
  <line x1="5.8" y1="-14.2" x2="47.8" y2="134.4" opacity="0.5"/>
  <line x1="192.3" y1="-121.8" x2="154.4" y2="27.8" opacity="0.5"/>
  <line x1="427.9" y1="-197.2" x2="300.0" y2="-65.8" opacity="0.5"/>
  <line x1="649.3" y1="-69.3" x2="472.9" y2="-19.5" opacity="0.5"/>
  <line x1="777.2" y1="152.1" x2="599.5" y2="107.1" opacity="0.5"/>
  <line x1="777.2" y1="407.9" x2="645.8" y2="280.0" opacity="0.5"/>
  <line x1="649.3" y1="629.3" x2="599.5" y2="452.9" opacity="0.5"/>
  <line x1="427.9" y1="757.2" x2="472.9" y2="579.5" opacity="0.5"/>
  <line x1="172.1" y1="757.2" x2="300.0" y2="625.8" opacity="0.5"/>
  <line x1="-49.3" y1="629.3" x2="127.1" y2="579.5" opacity="0.5"/>
  <line x1="-177.2" y1="407.9" x2="0.5" y2="452.9" opacity="0.5"/>
  <line x1="-177.2" y1="152.1" x2="-45.8" y2="280.0" opacity="0.5"/>
  <line x1="-49.3" y1="-69.3" x2="0.5" y2="107.1" opacity="0.5"/>
  <line x1="172.1" y1="-197.2" x2="127.1" y2="-19.5" opacity="0.5"/>
</svg>