<svg xmlns="http://www.w3.org/2000/svg" viewBox="0 0 600 520" width="600" height="520">
<style>
polygon { fill: none; stroke: #2c3e50; stroke-width: 2; stroke-linejoin: round; }
line { stroke: #2c3e50; stroke-width: 2; }
.penrose-thin { fill: #e74c3c33; }
.penrose-fat { fill: #3498db33; }
</style>
  <polygon points="30.0,0.0 15.0,26.0 -15.0,26.0 -30.0,0.0 -15.0,-26.0 15.0,-26.0"/>
  <polygon points="90.0,0.0 75.0,26.0 45.0,26.0 30.0,0.0 45.0,-26.0 75.0,-26.0"/>
  <polygon points="150.0,0.0 135.0,26.0 105.0,26.0 90.0,0.0 105.0,-26.0 135.0,-26.0"/>
  <polygon points="210.0,0.0 195.0,26.0 165.0,26.0 150.0,0.0 165.0,-26.0 195.0,-26.0"/>
  <polygon points="270.0,0.0 255.0,26.0 225.0,26.0 210.0,0.0 225.0,-26.0 255.0,-26.0"/>
  <polygon points="330.0,0.0 315.0,26.0 285.0,26.0 270.0,0.0 285.0,-26.0 315.0,-26.0"/>
  <polygon points="390.0,0.0 375.0,26.0 345.0,26.0 330.0,0.0 345.0,-26.0 375.0,-26.0"/>
  <polygon points="450.0,0.0 435.0,26.0 405.0,26.0 390.0,0.0 405.0,-26.0 435.0,-26.0"/>
  <polygon points="510.0,0.0 495.0,26.0 465.0,26.0 450.0,0.0 465.0,-26.0 495.0,-26.0"/>
  <polygon points="570.0,0.0 555.0,26.0 525.0,26.0 510.0,0.0 525.0,-26.0 555.0,-26.0"/>
  <polygon points="630.0,0.0 615.0,26.0 585.0,26.0 570.0,0.0 585.0,-26.0 615.0,-26.0"/>
  <polygon points="60.0,26.0 45.0,52.0 15.0,52.0 0.0,26.0 15.0,0.0 45.0,0.0"/>
  <polygon points="120.0,26.0 105.0,52.0 75.0,52.0 60.0,26.0 75.0,0.0 105.0,0.0"/>
  <polygon points="180.0,26.0 165.0,52.0 135.0,52.0 120.0,26.0 135.0,0.0 165.0,0.0"/>
  <polygon points="240.0,26.0 225.0,52.0 195.0,52.0 180.0,26.0 195.0,0.0 225.0,0.0"/>
  <polygon points="300.0,26.0 285.0,52.0 255.0,52.0 240.0,26.0 255.0,0.0 285.0,0.0"/>
  <polygon points="360.0,26.0 345.0,52.0 315.0,52.0 300.0,26.0 315.0,0.0 345.0,0.0"/>
  <polygon points="420.0,26.0 405.0,52.0 375.0,52.0 360.0,26.0 375.0,0.0 405.0,0.0"/>
  <polygon points="480.0,26.0 465.0,52.0 435.0,52.0 420.0,26.0 435.0,0.0 465.0,0.0"/>
  <polygon points="540.0,26.0 525.0,52.0 495.0,52.0 480.0,26.0 495.0,0.0 525.0,0.0"/>
  <polygon points="600.0,26.0 585.0,52.0 555.0,52.0 540.0,26.0 555.0,0.0 585.0,0.0"/>
  <polygon points="660.0,26.0 645.0,52.0 615.0,52.0 600.0,26.0 615.0,0.0 645.0,0.0"/>
  <polygon points="30.0,52.0 15.0,77.9 -15.0,77.9 -30.0,52.0 -15.0,26.0 15.0,26.0"/>
  <polygon points="90.0,52.0 75.0,77.9 45.0,77.9 30.0,52.0 45.0,26.0 75.0,26.0"/>
  <polygon points="150.0,52.0 135.0,77.9 105.0,77.9 90.0,52.0 105.0,26.0 135.0,26.0"/>
  <polygon points="210.0,52.0 195.0,77.9 165.0,77.9 150.0,52.0 165.0,26.0 195.0,26.0"/>
  <polygon points="270.0,52.0 255.0,77.9 225.0,77.9 210.0,52.0 225.0,26.0 255.0,26.0"/>
  <polygon points="330.0,52.0 315.0,77.9 285.0,77.9 270.0,52.0 285.0,26.0 315.0,26.0"/>
  <polygon points="390.0,52.0 375.0,77.9 345.0,77.9 330.0,52.0 345.0,26.0 375.0,26.0"/>
  <polygon points="450.0,52.0 435.0,77.9 405.0,77.9 390.0,52.0 405.0,26.0 435.0,26.0"/>
  <polygon points="510.0,52.0 495.0,77.9 465.0,77.9 450.0,52.0 465.0,26.0 495.0,26.0"/>
  <polygon points="570.0,52.0 555.0,77.9 525.0,77.9 510.0,52.0 525.0,26.0 555.0,26.0"/>
  <polygon points="630.0,52.0 615.0,77.9 585.0,77.9 570.0,52.0 585.0,26.0 615.0,26.0"/>
  <polygon points="60.0,77.9 45.0,103.9 15.0,103.9 0.0,77.9 15.0,52.0 45.0,52.0"/>
  <polygon points="120.0,77.9 105.0,103.9 75.0,103.9 60.0,77.9 75.0,52.0 105.0,52.0"/>
  <polygon points="180.0,77.9 165.0,103.9 135.0,103.9 120.0,77.9 135.0,52.0 165.0,52.0"/>
  <polygon points="240.0,77.9 225.0,103.9 195.0,103.9 180.0,77.9 195.0,52.0 225.0,52.0"/>
  <polygon points="300.0,77.9 285.0,103.9 255.0,103.9 240.0,77.9 255.0,52.0 285.0,52.0"/>
  <polygon points="360.0,77.9 345.0,103.9 315.0,103.9 300.0,77.9 315.0,52.0 345.0,52.0"/>
  <polygon points="420.0,77.9 405.0,103.9 375.0,103.9 360.0,77.9 375.0,52.0 405.0,52.0"/>
  <polygon points="480.0,77.9 465.0,103.9 435.0,103.9 420.0,77.9 435.0,52.0 465.0,52.0"/>
  <polygon points="540.0,77.9 525.0,103.9 495.0,103.9 480.0,77.9 495.0,52.0 525.0,52.0"/>
  <polygon points="600.0,77.9 585.0,103.9 555.0,103.9 540.0,77.9 555.0,52.0 585.0,52.0"/>
  <polygon points="660.0,77.9 645.0,103.9 615.0,103.9 600.0,77.9 615.0,52.0 645.0,52.0"/>
  <polygon points="30.0,103.9 15.0,129.9 -15.0,129.9 -30.0,103.9 -15.0,77.9 15.0,77.9"/>
  <polygon points="90.0,103.9 75.0,129.9 45.0,129.9 30.0,103.9 45.0,77.9 75.0,77.9"/>
  <polygon points="150.0,103.9 135.0,129.9 105.0,129.9 90.0,103.9 105.0,77.9 135.0,77.9"/>
  <polygon points="210.0,103.9 195.0,129.9 165.0,129.9 150.0,103.9 165.0,77.9 195.0,77.9"/>
  <polygon points="270.0,103.9 255.0,129.9 225.0,129.9 210.0,103.9 225.0,77.9 255.0,77.9"/>
  <polygon points="330.0,103.9 315.0,129.9 285.0,129.9 270.0,103.9 285.0,77.9 315.0,77.9"/>
  <polygon points="390.0,103.9 375.0,129.9 345.0,129.9 330.0,103.9 345.0,77.9 375.0,77.9"/>
  <polygon points="450.0,103.9 435.0,129.9 405.0,129.9 390.0,103.9 405.0,77.9 435.0,77.9"/>
  <polygon points="510.0,103.9 495.0,129.9 465.0,129.9 450.0,103.9 465.0,77.9 495.0,77.9"/>
  <polygon points="570.0,103.9 555.0,129.9 525.0,129.9 510.0,103.9 525.0,77.9 555.0,77.9"/>
  <polygon points="630.0,103.9 615.0,129.9 585.0,129.9 570.0,103.9 585.0,77.9 615.0,77.9"/>
  <polygon points="60.0,129.9 45.0,155.9 15.0,155.9 0.0,129.9 15.0,103.9 45.0,103.9"/>
  <polygon points="120.0,129.9 105.0,155.9 75.0,155.9 60.0,129.9 75.0,103.9 105.0,103.9"/>
  <polygon points="180.0,129.9 165.0,155.9 135.0,155.9 120.0,129.9 135.0,103.9 165.0,103.9"/>
  <polygon points="240.0,129.9 225.0,155.9 195.0,155.9 180.0,129.9 195.0,103.9 225.0,103.9"/>
  <polygon points="300.0,129.9 285.0,155.9 255.0,155.9 240.0,129.9 255.0,103.9 285.0,103.9"/>
  <polygon points="360.0,129.9 345.0,155.9 315.0,155.9 300.0,129.9 315.0,103.9 345.0,103.9"/>
  <polygon points="420.0,129.9 405.0,155.9 375.0,155.9 360.0,129.9 375.0,103.9 405.0,103.9"/>
  <polygon points="480.0,129.9 465.0,155.9 435.0,155.9 420.0,129.9 435.0,103.9 465.0,103.9"/>
  <polygon points="540.0,129.9 525.0,155.9 495.0,155.9 480.0,129.9 495.0,103.9 525.0,103.9"/>
  <polygon points="600.0,129.9 585.0,155.9 555.0,155.9 540.0,129.9 555.0,103.9 585.0,103.9"/>
  <polygon points="660.0,129.9 645.0,155.9 615.0,155.9 600.0,129.9 615.0,103.9 645.0,103.9"/>
  <polygon points="30.0,155.9 15.0,181.9 -15.0,181.9 -30.0,155.9 -15.0,129.9 15.0,129.9"/>
  <polygon points="90.0,155.9 75.0,181.9 45.0,181.9 30.0,155.9 45.0,129.9 75.0,129.9"/>
  <polygon points="150.0,155.9 135.0,181.9 105.0,181.9 90.0,155.9 105.0,129.9 135.0,129.9"/>
  <polygon points="210.0,155.9 195.0,181.9 165.0,181.9 150.0,155.9 165.0,129.9 195.0,129.9"/>
  <polygon points="270.0,155.9 255.0,181.9 225.0,181.9 210.0,155.9 225.0,129.9 255.0,129.9"/>
  <polygon points="330.0,155.9 315.0,181.9 285.0,181.9 270.0,155.9 285.0,129.9 315.0,129.9"/>
  <polygon points="390.0,155.9 375.0,181.9 345.0,181.9 330.0,155.9 345.0,129.9 375.0,129.9"/>
  <polygon points="450.0,155.9 435.0,181.9 405.0,181.9 390.0,155.9 405.0,129.9 435.0,129.9"/>
  <polygon points="510.0,155.9 495.0,181.9 465.0,181.9 450.0,155.9 465.0,129.9 495.0,129.9"/>
  <polygon points="570.0,155.9 555.0,181.9 525.0,181.9 510.0,155.9 525.0,129.9 555.0,129.9"/>
  <polygon points="630.0,155.9 615.0,181.9 585.0,181.9 570.0,155.9 585.0,129.9 615.0,129.9"/>
  <polygon points="60.0,181.9 45.0,207.8 15.0,207.8 0.0,181.9 15.0,155.9 45.0,155.9"/>
  <polygon points="120.0,181.9 105.0,207.8 75.0,207.8 60.0,181.9 75.0,155.9 105.0,155.9"/>
  <polygon points="180.0,181.9 165.0,207.8 135.0,207.8 120.0,181.9 135.0,155.9 165.0,155.9"/>
  <polygon points="240.0,181.9 225.0,207.8 195.0,207.8 180.0,181.9 195.0,155.9 225.0,155.9"/>
  <polygon points="300.0,181.9 285.0,207.8 255.0,207.8 240.0,181.9 255.0,155.9 285.0,155.9"/>
  <polygon points="360.0,181.9 345.0,207.8 315.0,207.8 300.0,181.9 315.0,155.9 345.0,155.9"/>
  <polygon points="420.0,181.9 405.0,207.8 375.0,207.8 360.0,181.9 375.0,155.9 405.0,155.9"/>
  <polygon points="480.0,181.9 465.0,207.8 435.0,207.8 420.0,181.9 435.0,155.9 465.0,155.9"/>
  <polygon points="540.0,181.9 525.0,207.8 495.0,207.8 480.0,181.9 495.0,155.9 525.0,155.9"/>
  <polygon points="600.0,181.9 585.0,207.8 555.0,207.8 540.0,181.9 555.0,155.9 585.0,155.9"/>
  <polygon points="660.0,181.9 645.0,207.8 615.0,207.8 600.0,181.9 615.0,155.9 645.0,155.9"/>
  <polygon points="30.0,207.8 15.0,233.8 -15.0,233.8 -30.0,207.8 -15.0,181.9 15.0,181.9"/>
  <polygon points="90.0,207.8 75.0,233.8 45.0,233.8 30.0,207.8 45.0,181.9 75.0,181.9"/>
  <polygon points="150.0,207.8 135.0,233.8 105.0,233.8 90.0,207.8 105.0,181.9 135.0,181.9"/>
  <polygon points="210.0,207.8 195.0,233.8 165.0,233.8 150.0,207.8 165.0,181.9 195.0,181.9"/>
  <polygon points="270.0,207.8 255.0,233.8 225.0,233.8 210.0,207.8 225.0,181.9 255.0,181.9"/>
  <polygon points="330.0,207.8 315.0,233.8 285.0,233.8 270.0,207.8 285.0,181.9 315.0,181.9"/>
  <polygon points="390.0,207.8 375.0,233.8 345.0,233.8 330.0,207.8 345.0,181.9 375.0,181.9"/>
  <polygon points="450.0,207.8 435.0,233.8 405.0,233.8 390.0,207.8 405.0,181.9 435.0,181.9"/>
  <polygon points="510.0,207.8 495.0,233.8 465.0,233.8 450.0,207.8 465.0,181.9 495.0,181.9"/>
  <polygon points="570.0,207.8 555.0,233.8 525.0,233.8 510.0,207.8 525.0,181.9 555.0,181.9"/>
  <polygon points="630.0,207.8 615.0,233.8 585.0,233.8 570.0,207.8 585.0,181.9 615.0,181.9"/>
  <polygon points="60.0,233.8 45.0,259.8 15.0,259.8 0.0,233.8 15.0,207.8 45.0,207.8"/>
  <polygon points="120.0,233.8 105.0,259.8 75.0,259.8 60.0,233.8 75.0,207.8 105.0,207.8"/>
  <polygon points="180.0,233.8 165.0,259.8 135.0,259.8 120.0,233.8 135.0,207.8 165.0,207.8"/>
  <polygon points="240.0,233.8 225.0,259.8 195.0,259.8 180.0,233.8 195.0,207.8 225.0,207.8"/>
  <polygon points="300.0,233.8 285.0,259.8 255.0,259.8 240.0,233.8 255.0,207.8 285.0,207.8"/>
  <polygon points="360.0,233.8 345.0,259.8 315.0,259.8 300.0,233.8 315.0,207.8 345.0,207.8"/>
  <polygon points="420.0,233.8 405.0,259.8 375.0,259.8 360.0,233.8 375.0,207.8 405.0,207.8"/>
  <polygon points="480.0,233.8 465.0,259.8 435.0,259.8 420.0,233.8 435.0,207.8 465.0,207.8"/>
  <polygon points="540.0,233.8 525.0,259.8 495.0,259.8 480.0,233.8 495.0,207.8 525.0,207.8"/>
  <polygon points="600.0,233.8 585.0,259.8 555.0,259.8 540.0,233.8 555.0,207.8 585.0,207.8"/>
  <polygon points="660.0,233.8 645.0,259.8 615.0,259.8 600.0,233.8 615.0,207.8 645.0,207.8"/>
  <polygon points="30.0,259.8 15.0,285.8 -15.0,285.8 -30.0,259.8 -15.0,233.8 15.0,233.8"/>
  <polygon points="90.0,259.8 75.0,285.8 45.0,285.8 30.0,259.8 45.0,233.8 75.0,233.8"/>
  <polygon points="150.0,259.8 135.0,285.8 105.0,285.8 90.0,259.8 105.0,233.8 135.0,233.8"/>
  <polygon points="210.0,259.8 195.0,285.8 165.0,285.8 150.0,259.8 165.0,233.8 195.0,233.8"/>
  <polygon points="270.0,259.8 255.0,285.8 225.0,285.8 210.0,259.8 225.0,233.8 255.0,233.8"/>
  <polygon points="330.0,259.8 315.0,285.8 285.0,285.8 270.0,259.8 285.0,233.8 315.0,233.8"/>
  <polygon points="390.0,259.8 375.0,285.8 345.0,285.8 330.0,259.8 345.0,233.8 375.0,233.8"/>
  <polygon points="450.0,259.8 435.0,285.8 405.0,285.8 390.0,259.8 405.0,233.8 435.0,233.8"/>
  <polygon points="510.0,259.8 495.0,285.8 465.0,285.8 450.0,259.8 465.0,233.8 495.0,233.8"/>
  <polygon points="570.0,259.8 555.0,285.8 525.0,285.8 510.0,259.8 525.0,233.8 555.0,233.8"/>
  <polygon points="630.0,259.8 615.0,285.8 585.0,285.8 570.0,259.8 585.0,233.8 615.0,233.8"/>
  <polygon points="60.0,285.8 45.0,311.8 15.0,311.8 0.0,285.8 15.0,259.8 45.0,259.8"/>
  <polygon points="120.0,285.8 105.0,311.8 75.0,311.8 60.0,285.8 75.0,259.8 105.0,259.8"/>
  <polygon points="180.0,285.8 165.0,311.8 135.0,311.8 120.0,285.8 135.0,259.8 165.0,259.8"/>
  <polygon points="240.0,285.8 225.0,311.8 195.0,311.8 180.0,285.8 195.0,259.8 225.0,259.8"/>
  <polygon points="300.0,285.8 285.0,311.8 255.0,311.8 240.0,285.8 255.0,259.8 285.0,259.8"/>
  <polygon points="360.0,285.8 345.0,311.8 315.0,311.8 300.0,285.8 315.0,259.8 345.0,259.8"/>
  <polygon points="420.0,285.8 405.0,311.8 375.0,311.8 360.0,285.8 375.0,259.8 405.0,259.8"/>
  <polygon points="480.0,285.8 465.0,311.8 435.0,311.8 420.0,285.8 435.0,259.8 465.0,259.8"/>
  <polygon points="540.0,285.8 525.0,311.8 495.0,311.8 480.0,285.8 495.0,259.8 525.0,259.8"/>
  <polygon points="600.0,285.8 585.0,311.8 555.0,311.8 540.0,285.8 555.0,259.8 585.0,259.8"/>
  <polygon points="660.0,285.8 645.0,311.8 615.0,311.8 600.0,285.8 615.0,259.8 645.0,259.8"/>
</svg>