<svg xmlns="http://www.w3.org/2000/svg" viewBox="0 0 600 520" width="600" height="520">
<style>
polygon { fill: none; stroke: #2c3e50; stroke-width: 2; stroke-linejoin: round; }
</style>
  <polygon points="22.3,9.2 9.2,22.3 -9.2,22.3 -22.3,9.2 -22.3,-9.2 -9.2,-22.3 9.2,-22.3 22.3,-9.2"/>
  <polygon points="24.1,24.1 64.1,24.1 64.1,64.1 24.1,64.1"/>
  <polygon points="110.6,9.2 97.5,22.3 79.0,22.3 66.0,9.2 66.0,-9.2 79.0,-22.3 97.5,-22.3 110.6,-9.2"/>
  <polygon points="112.4,24.1 152.4,24.1 152.4,64.1 112.4,64.1"/>
  <polygon points="198.9,9.2 185.8,22.3 167.3,22.3 154.3,9.2 154.3,-9.2 167.3,-22.3 185.8,-22.3 198.9,-9.2"/>
  <polygon points="200.7,24.1 240.7,24.1 240.7,64.1 200.7,64.1"/>
  <polygon points="287.2,9.2 274.1,22.3 255.6,22.3 242.5,9.2 242.5,-9.2 255.6,-22.3 274.1,-22.3 287.2,-9.2"/>
  <polygon points="289.0,24.1 329.0,24.1 329.0,64.1 289.0,64.1"/>
  <polygon points="375.4,9.2 362.4,22.3 343.9,22.3 330.8,9.2 330.8,-9.2 343.9,-22.3 362.4,-22.3 375.4,-9.2"/>
  <polygon points="377.3,24.1 417.3,24.1 417.3,64.1 377.3,64.1"/>
  <polygon points="463.7,9.2 450.7,22.3 432.2,22.3 419.1,9.2 419.1,-9.2 432.2,-22.3 450.7,-22.3 463.7,-9.2"/>
  <polygon points="465.6,24.1 505.6,24.1 505.6,64.1 465.6,64.1"/>
  <polygon points="552.0,9.2 538.9,22.3 520.5,22.3 507.4,9.2 507.4,-9.2 520.5,-22.3 538.9,-22.3 552.0,-9.2"/>
  <polygon points="553.8,24.1 593.8,24.1 593.8,64.1 553.8,64.1"/>
  <polygon points="640.3,9.2 627.2,22.3 608.8,22.3 595.7,9.2 595.7,-9.2 608.8,-22.3 627.2,-22.3 640.3,-9.2"/>
  <polygon points="22.3,97.5 9.2,110.6 -9.2,110.6 -22.3,97.5 -22.3,79.0 -9.2,66.0 9.2,66.0 22.3,79.0"/>
  <polygon points="24.1,112.4 64.1,112.4 64.1,152.4 24.1,152.4"/>
  <polygon points="110.6,97.5 97.5,110.6 79.0,110.6 66.0,97.5 66.0,79.0 79.0,66.0 97.5,66.0 110.6,79.0"/>
  <polygon points="112.4,112.4 152.4,112.4 152.4,152.4 112.4,152.4"/>
  <polygon points="198.9,97.5 185.8,110.6 167.3,110.6 154.3,97.5 154.3,79.0 167.3,66.0 185.8,66.0 198.9,79.0"/>
  <polygon points="200.7,112.4 240.7,112.4 240.7,152.4 200.7,152.4"/>
  <polygon points="287.2,97.5 274.1,110.6 255.6,110.6 242.5,97.5 242.5,79.0 255.6,66.0 274.1,66.0 287.2,79.0"/>
  <polygon points="289.0,112.4 329.0,112.4 329.0,152.4 289.0,152.4"/>
  <polygon points="375.4,97.5 362.4,110.6 343.9,110.6 330.8,97.5 330.8,79.0 343.9,66.0 362.4,66.0 375.4,79.0"/>
  <polygon points="377.3,112.4 417.3,112.4 417.3,152.4 377.3,152.4"/>
  <polygon points="463.7,97.5 450.7,110.6 432.2,110.6 419.1,97.5 419.1,79.0 432.2,66.0 450.7,66.0 463.7,79.0"/>
  <polygon points="465.6,112.4 505.6,112.4 505.6,152.4 465.6,152.4"/>
  <polygon points="552.0,97.5 538.9,110.6 520.5,110.6 507.4,97.5 507.4,79.0 520.5,66.0 538.9,66.0 552.0,79.0"/>
  <polygon points="553.8,112.4 593.8,112.4 593.8,152.4 553.8,152.4"/>
  <polygon points="640.3,97.5 627.2,110.6 608.8,110.6 595.7,97.5 595.7,79.0 608.8,66.0 627.2,66.0 640.3,79.0"/>
  <polygon points="22.3,185.8 9.2,198.9 -9.2,198.9 -22.3,185.8 -22.3,167.3 -9.2,154.3 9.2,154.3 22.3,167.3"/>
  <polygon points="24.1,200.7 64.1,200.7 64.1,240.7 24.1,240.7"/>
  <polygon points="110.6,185.8 97.5,198.9 79.0,198.9 66.0,185.8 66.0,167.3 79.0,154.3 97.5,154.3 110.6,167.3"/>
  <polygon points="112.4,200.7 152.4,200.7 152.4,240.7 112.4,240.7"/>
  <polygon points="198.9,185.8 185.8,198.9 167.3,198.9 154.3,185.8 154.3,167.3 167.3,154.3 185.8,154.3 198.9,167.3"/>
  <polygon points="200.7,200.7 240.7,200.7 240.7,240.7 200.7,240.7"/>
  <polygon points="287.2,185.8 274.1,198.9 255.6,198.9 242.5,185.8 242.5,167.3 255.6,154.3 274.1,154.3 287.2,167.3"/>
  <polygon points="289.0,200.7 329.0,200.7 329.0,240.7 289.0,240.7"/>
  <polygon points="375.4,185.8 362.4,198.9 343.9,198.9 330.8,185.8 330.8,167.3 343.9,154.3 362.4,154.3 375.4,167.3"/>
  <polygon points="377.3,200.7 417.3,200.7 417.3,240.7 377.3,240.7"/>
  <polygon points="463.7,185.8 450.7,198.9 432.2,198.9 419.1,185.8 419.1,167.3 432.2,154.3 450.7,154.3 463.7,167.3"/>
  <polygon points="465.6,200.7 505.6,200.7 505.6,240.7 465.6,240.7"/>
  <polygon points="552.0,185.8 538.9,198.9 520.5,198.9 507.4,185.8 507.4,167.3 520.5,154.3 538.9,154.3 552.0,167.3"/>
  <polygon points="553.8,200.7 593.8,200.7 593.8,240.7 553.8,240.7"/>
  <polygon points="640.3,185.8 627.2,198.9 608.8,198.9 595.7,185.8 595.7,167.3 608.8,154.3 627.2,154.3 640.3,167.3"/>
  <polygon points="22.3,274.1 9.2,287.2 -9.2,287.2 -22.3,274.1 -22.3,255.6 -9.2,242.5 9.2,242.5 22.3,255.6"/>
  <polygon points="24.1,289.0 64.1,289.0 64.1,329.0 24.1,329.0"/>
  <polygon points="110.6,274.1 97.5,287.2 79.0,287.2 66.0,274.1 66.0,255.6 79.0,242.5 97.5,242.5 110.6,255.6"/>
  <polygon points="112.4,289.0 152.4,289.0 152.4,329.0 112.4,329.0"/>
  <polygon points="198.9,274.1 185.8,287.2 167.3,287.2 154.3,274.1 154.3,255.6 167.3,242.5 185.8,242.5 198.9,255.6"/>
  <polygon points="200.7,289.0 240.7,289.0 240.7,329.0 200.7,329.0"/>
  <polygon points="287.2,274.1 274.1,287.2 255.6,287.2 242.5,274.1 242.5,255.6 255.6,242.5 274.1,242.5 287.2,255.6"/>
  <polygon points="289.0,289.0 329.0,289.0 329.0,329.0 289.0,329.0"/>
  <polygon points="375.4,274.1 362.4,287.2 343.9,287.2 330.8,274.1 330.8,255.6 343.9,242.5 362.4,242.5 375.4,255.6"/>
  <polygon points="377.3,289.0 417.3,289.0 417.3,329.0 377.3,329.0"/>
  <polygon points="463.7,274.1 450.7,287.2 432.2,287.2 419.1,274.1 419.1,255.6 432.2,242.5 450.7,242.5 463.7,255.6"/>
  <polygon points="465.6,289.0 505.6,289.0 505.6,329.0 465.6,329.0"/>
  <polygon points="552.0,274.1 538.9,287.2 520.5,287.2 507.4,274.1 507.4,255.6 520.5,242.5 538.9,242.5 552.0,255.6"/>
  <polygon points="553.8,289.0 593.8,289.0 593.8,329.0 553.8,329.0"/>
  <polygon points="640.3,274.1 627.2,287.2 608.8,287.2 595.7,274.1 595.7,255.6 608.8,242.5 627.2,242.5 640.3,255.6"/>
  <polygon points="22.3,362.4 9.2,375.4 -9.2,375.4 -22.3,362.4 -22.3,343.9 -9.2,330.8 9.2,330.8 22.3,343.9"/>
  <polygon points="24.1,377.3 64.1,377.3 64.1,417.3 24.1,417.3"/>
  <polygon points="110.6,362.4 97.5,375.4 79.0,375.4 66.0,362.4 66.0,343.9 79.0,330.8 97.5,330.8 110.6,343.9"/>
  <polygon points="112.4,377.3 152.4,377.3 152.4,417.3 112.4,417.3"/>
  <polygon points="198.9,362.4 185.8,375.4 167.3,375.4 154.3,362.4 154.3,343.9 167.3,330.8 185.8,330.8 198.9,343.9"/>
  <polygon points="200.7,377.3 240.7,377.3 240.7,417.3 200.7,417.3"/>
  <polygon points="287.2,362.4 274.1,375.4 255.6,375.4 242.5,362.4 242.5,343.9 255.6,330.8 274.1,330.8 287.2,343.9"/>
  <polygon points="289.0,377.3 329.0,377.3 329.0,417.3 289.0,417.3"/>
  <polygon points="375.4,362.4 362.4,375.4 343.9,375.4 330.8,362.4 330.8,343.9 343.9,330.8 362.4,330.8 375.4,343.9"/>
  <polygon points="377.3,377.3 417.3,377.3 417.3,417.3 377.3,417.3"/>
  <polygon points="463.7,362.4 450.7,375.4 432.2,375.4 419.1,362.4 419.1,343.9 432.2,330.8 450.7,330.8 463.7,343.9"/>
  <polygon points="465.6,377.3 505.6,377.3 505.6,417.3 465.6,417.3"/>
  <polygon points="552.0,362.4 538.9,375.4 520.5,375.4 507.4,362.4 507.4,343.9 520.5,330.8 538.9,330.8 552.0,343.9"/>
  <polygon points="553.8,377.3 593.8,377.3 593.8,417.3 553.8,417.3"/>
  <polygon points="640.3,362.4 627.2,375.4 608.8,375.4 595.7,362.4 595.7,343.9 608.8,330.8 627.2,330.8 640.3,343.9"/>
  <polygon points="22.3,450.7 9.2,463.7 -9.2,463.7 -22.3,450.7 -22.3,432.2 -9.2,419.1 9.2,419.1 22.3,432.2"/>
  <polygon points="24.1,465.6 64.1,465.6 64.1,505.6 24.1,505.6"/>
  <polygon points="110.6,450.7 97.5,463.7 79.0,463.7 66.0,450.7 66.0,432.2 79.0,419.1 97.5,419.1 110.6,432.2"/>
  <polygon points="112.4,465.6 152.4,465.6 152.4,505.6 112.4,505.6"/>
  <polygon points="198.9,450.7 185.8,463.7 167.3,463.7 154.3,450.7 154.3,432.2 167.3,419.1 185.8,419.1 198.9,432.2"/>
  <polygon points="200.7,465.6 240.7,465.6 240.7,505.6 200.7,505.6"/>
  <polygon points="287.2,450.7 274.1,463.7 255.6,463.7 242.5,450.7 242.5,432.2 255.6,419.1 274.1,419.1 287.2,432.2"/>
  <polygon points="289.0,465.6 329.0,465.6 329.0,505.6 289.0,505.6"/>
  <polygon points="375.4,450.7 362.4,463.7 343.9,463.7 330.8,450.7 330.8,432.2 343.9,419.1 362.4,419.1 375.4,432.2"/>
  <polygon points="377.3,465.6 417.3,465.6 417.3,505.6 377.3,505.6"/>
  <polygon points="463.7,450.7 450.7,463.7 432.2,463.7 419.1,450.7 419.1,432.2 432.2,419.1 450.7,419.1 463.7,432.2"/>
  <polygon points="465.6,465.6 505.6,465.6 505.6,505.6 465.6,505.6"/>
  <polygon points="552.0,450.7 538.9,463.7 520.5,463.7 507.4,450.7 507.4,432.2 520.5,419.1 538.9,419.1 552.0,432.2"/>
  <polygon points="553.8,465.6 593.8,465.6 593.8,505.6 553.8,505.6"/>
  <polygon points="640.3,450.7 627.2,463.7 608.8,463.7 595.7,450.7 595.7,432.2 608.8,419.1 627.2,419.1 640.3,432.2"/>
  <polygon points="22.3,538.9 9.2,552.0 -9.2,552.0 -22.3,538.9 -22.3,520.5 -9.2,507.4 9.2,507.4 22.3,520.5"/>
  <polygon points="24.1,553.8 64.1,553.8 64.1,593.8 24.1,593.8"/>
  <polygon points="110.6,538.9 97.5,552.0 79.0,552.0 66.0,538.9 66.0,520.5 79.0,507.4 97.5,507.4 110.6,520.5"/>
  <polygon points="112.4,553.8 152.4,553.8 152.4,593.8 112.4,593.8"/>
  <polygon points="198.9,538.9 185.8,552.0 167.3,552.0 154.3,538.9 154.3,520.5 167.3,507.4 185.8,507.4 198.9,520.5"/>
  <polygon points="200.7,553.8 240.7,553.8 240.7,593.8 200.7,593.8"/>
  <polygon points="287.2,538.9 274.1,552.0 255.6,552.0 242.5,538.9 242.5,520.5 255.6,507.4 274.1,507.4 287.2,520.5"/>
  <polygon points="289.0,553.8 329.0,553.8 329.0,593.8 289.0,593.8"/>
  <polygon points="375.4,538.9 362.4,552.0 343.9,552.0 330.8,538.9 330.8,520.5 343.9,507.4 362.4,507.4 375.4,520.5"/>
  <polygon points="377.3,553.8 417.3,553.8 417.3,593.8 377.3,593.8"/>
  <polygon points="463.7,538.9 450.7,552.0 432.2,552.0 419.1,538.9 419.1,520.5 432.2,507.4 450.7,507.4 463.7,520.5"/>
  <polygon points="465.6,553.8 505.6,553.8 505.6,593.8 465.6,593.8"/>
  <polygon points="552.0,538.9 538.9,552.0 520.5,552.0 507.4,538.9 507.4,520.5 520.5,507.4 538.9,507.4 552.0,520.5"/>
  <polygon points="553.8,553.8 593.8,553.8 593.8,593.8 553.8,593.8"/>
  <polygon points="640.3,538.9 627.2,552.0 608.8,552.0 595.7,538.9 595.7,520.5 608.8,507.4 627.2,507.4 640.3,520.5"/>
</svg>