<svg xmlns="http://www.w3.org/2000/svg" viewBox="0 0 600 500" width="600" height="500">
<style>
polygon { fill: none; stroke: #2c3e50; stroke-width: 2; stroke-linejoin: round; }
line { stroke: #2c3e50; stroke-width: 2; }
.penrose-thin { fill: #e74c3c33; }
.penrose-fat { fill: #3498db33; }
</style>
  <circle cx="134" cy="32" r="4" fill="#e74c3c"/>
  <circle cx="301" cy="145" r="4" fill="#e74c3c"/>
  <circle cx="248" cy="91" r="4" fill="#e74c3c"/>
  <circle cx="124" cy="366" r="4" fill="#e74c3c"/>
  <circle cx="578" cy="64" r="4" fill="#e74c3c"/>
  <circle cx="452" cy="36" r="4" fill="#e74c3c"/>
  <circle cx="50" cy="67" r="4" fill="#e74c3c"/>
  <circle cx="243" cy="139" r="4" fill="#e74c3c"/>
  <circle cx="537" cy="328" r="4" fill="#e74c3c"/>
  <circle cx="47" cy="307" r="4" fill="#e74c3c"/>
  <circle cx="223" cy="386" r="4" fill="#e74c3c"/>
  <circle cx="578" cy="234" r="4" fill="#e74c3c"/>
  <circle cx="245" cy="249" r="4" fill="#e74c3c"/>
  <circle cx="304" cy="434" r="4" fill="#e74c3c"/>
  <circle cx="26" cy="408" r="4" fill="#e74c3c"/>
  <circle cx="183" cy="377" r="4" fill="#e74c3c"/>
  <circle cx="452" cy="194" r="4" fill="#e74c3c"/>
  <circle cx="304" cy="99" r="4" fill="#e74c3c"/>
  <circle cx="240" cy="410" r="4" fill="#e74c3c"/>
  <circle cx="364" cy="72" r="4" fill="#e74c3c"/>
  <circle cx="114" cy="214" r="4" fill="#e74c3c"/>
  <circle cx="119" cy="203" r="4" fill="#e74c3c"/>
  <circle cx="372" cy="329" r="4" fill="#e74c3c"/>
  <circle cx="290" cy="433" r="4" fill="#e74c3c"/>
  <circle cx="64" cy="393" r="4" fill="#e74c3c"/>
  <circle cx="490" cy="294" r="4" fill="#e74c3c"/>
  <circle cx="147" cy="213" r="4" fill="#e74c3c"/>
  <circle cx="100" cy="302" r="4" fill="#e74c3c"/>
  <circle cx="320" cy="444" r="4" fill="#e74c3c"/>
  <circle cx="390" cy="315" r="4" fill="#e74c3c"/>
  <line x1="134" y1="32" x2="248" y2="91" stroke="#95a5a6" stroke-width="0.5" stroke-dasharray="4,3"/>
  <line x1="134" y1="32" x2="50" y2="67" stroke="#95a5a6" stroke-width="0.5" stroke-dasharray="4,3"/>
  <line x1="301" y1="145" x2="248" y2="91" stroke="#95a5a6" stroke-width="0.5" stroke-dasharray="4,3"/>
  <line x1="301" y1="145" x2="243" y2="139" stroke="#95a5a6" stroke-width="0.5" stroke-dasharray="4,3"/>
  <line x1="301" y1="145" x2="245" y2="249" stroke="#95a5a6" stroke-width="0.5" stroke-dasharray="4,3"/>
  <line x1="301" y1="145" x2="304" y2="99" stroke="#95a5a6" stroke-width="0.5" stroke-dasharray="4,3"/>
  <line x1="301" y1="145" x2="364" y2="72" stroke="#95a5a6" stroke-width="0.5" stroke-dasharray="4,3"/>
  <line x1="248" y1="91" x2="243" y2="139" stroke="#95a5a6" stroke-width="0.5" stroke-dasharray="4,3"/>
  <line x1="248" y1="91" x2="304" y2="99" stroke="#95a5a6" stroke-width="0.5" stroke-dasharray="4,3"/>
  <line x1="248" y1="91" x2="364" y2="72" stroke="#95a5a6" stroke-width="0.5" stroke-dasharray="4,3"/>
  <line x1="124" y1="366" x2="47" y2="307" stroke="#95a5a6" stroke-width="0.5" stroke-dasharray="4,3"/>
  <line x1="124" y1="366" x2="223" y2="386" stroke="#95a5a6" stroke-width="0.5" stroke-dasharray="4,3"/>
  <line x1="124" y1="366" x2="26" y2="408" stroke="#95a5a6" stroke-width="0.5" stroke-dasharray="4,3"/>
  <line x1="124" y1="366" x2="183" y2="377" stroke="#95a5a6" stroke-width="0.5" stroke-dasharray="4,3"/>
  <line x1="124" y1="366" x2="240" y2="410" stroke="#95a5a6" stroke-width="0.5" stroke-dasharray="4,3"/>
  <line x1="124" y1="366" x2="64" y2="393" stroke="#95a5a6" stroke-width="0.5" stroke-dasharray="4,3"/>
  <line x1="124" y1="366" x2="100" y2="302" stroke="#95a5a6" stroke-width="0.5" stroke-dasharray="4,3"/>
  <line x1="578" y1="64" x2="452" y2="36" stroke="#95a5a6" stroke-width="0.5" stroke-dasharray="4,3"/>
  <line x1="452" y1="36" x2="364" y2="72" stroke="#95a5a6" stroke-width="0.5" stroke-dasharray="4,3"/>
  <line x1="243" y1="139" x2="245" y2="249" stroke="#95a5a6" stroke-width="0.5" stroke-dasharray="4,3"/>
  <line x1="243" y1="139" x2="304" y2="99" stroke="#95a5a6" stroke-width="0.5" stroke-dasharray="4,3"/>
  <line x1="243" y1="139" x2="364" y2="72" stroke="#95a5a6" stroke-width="0.5" stroke-dasharray="4,3"/>
  <line x1="243" y1="139" x2="114" y2="214" stroke="#95a5a6" stroke-width="0.5" stroke-dasharray="4,3"/>
  <line x1="243" y1="139" x2="119" y2="203" stroke="#95a5a6" stroke-width="0.5" stroke-dasharray="4,3"/>
  <line x1="243" y1="139" x2="147" y2="213" stroke="#95a5a6" stroke-width="0.5" stroke-dasharray="4,3"/>
  <line x1="537" y1="328" x2="578" y2="234" stroke="#95a5a6" stroke-width="0.5" stroke-dasharray="4,3"/>
  <line x1="537" y1="328" x2="490" y2="294" stroke="#95a5a6" stroke-width="0.5" stroke-dasharray="4,3"/>
  <line x1="537" y1="328" x2="390" y2="315" stroke="#95a5a6" stroke-width="0.5" stroke-dasharray="4,3"/>
  <line x1="47" y1="307" x2="26" y2="408" stroke="#95a5a6" stroke-width="0.5" stroke-dasharray="4,3"/>
  <line x1="47" y1="307" x2="114" y2="214" stroke="#95a5a6" stroke-width="0.5" stroke-dasharray="4,3"/>
  <line x1="47" y1="307" x2="119" y2="203" stroke="#95a5a6" stroke-width="0.5" stroke-dasharray="4,3"/>
  <line x1="47" y1="307" x2="64" y2="393" stroke="#95a5a6" stroke-width="0.5" stroke-dasharray="4,3"/>
  <line x1="47" y1="307" x2="147" y2="213" stroke="#95a5a6" stroke-width="0.5" stroke-dasharray="4,3"/>
  <line x1="47" y1="307" x2="100" y2="302" stroke="#95a5a6" stroke-width="0.5" stroke-dasharray="4,3"/>
  <line x1="223" y1="386" x2="245" y2="249" stroke="#95a5a6" stroke-width="0.5" stroke-dasharray="4,3"/>
  <line x1="223" y1="386" x2="304" y2="434" stroke="#95a5a6" stroke-width="0.5" stroke-dasharray="4,3"/>
  <line x1="223" y1="386" x2="183" y2="377" stroke="#95a5a6" stroke-width="0.5" stroke-dasharray="4,3"/>
  <line x1="223" y1="386" x2="240" y2="410" stroke="#95a5a6" stroke-width="0.5" stroke-dasharray="4,3"/>
  <line x1="223" y1="386" x2="290" y2="433" stroke="#95a5a6" stroke-width="0.5" stroke-dasharray="4,3"/>
  <line x1="223" y1="386" x2="100" y2="302" stroke="#95a5a6" stroke-width="0.5" stroke-dasharray="4,3"/>
  <line x1="223" y1="386" x2="320" y2="444" stroke="#95a5a6" stroke-width="0.5" stroke-dasharray="4,3"/>
  <line x1="578" y1="234" x2="452" y2="194" stroke="#95a5a6" stroke-width="0.5" stroke-dasharray="4,3"/>
  <line x1="578" y1="234" x2="490" y2="294" stroke="#95a5a6" stroke-width="0.5" stroke-dasharray="4,3"/>
  <line x1="245" y1="249" x2="183" y2="377" stroke="#95a5a6" stroke-width="0.5" stroke-dasharray="4,3"/>
  <line x1="245" y1="249" x2="114" y2="214" stroke="#95a5a6" stroke-width="0.5" stroke-dasharray="4,3"/>
  <line x1="245" y1="249" x2="119" y2="203" stroke="#95a5a6" stroke-width="0.5" stroke-dasharray="4,3"/>
  <line x1="245" y1="249" x2="147" y2="213" stroke="#95a5a6" stroke-width="0.5" stroke-dasharray="4,3"/>
  <line x1="304" y1="434" x2="183" y2="377" stroke="#95a5a6" stroke-width="0.5" stroke-dasharray="4,3"/>
  <line x1="304" y1="434" x2="240" y2="410" stroke="#95a5a6" stroke-width="0.5" stroke-dasharray="4,3"/>
  <line x1="304" y1="434" x2="372" y2="329" stroke="#95a5a6" stroke-width="0.5" stroke-dasharray="4,3"/>
  <line x1="304" y1="434" x2="290" y2="433" stroke="#95a5a6" stroke-width="0.5" stroke-dasharray="4,3"/>
  <line x1="304" y1="434" x2="320" y2="444" stroke="#95a5a6" stroke-width="0.5" stroke-dasharray="4,3"/>
  <line x1="304" y1="434" x2="390" y2="315" stroke="#95a5a6" stroke-width="0.5" stroke-dasharray="4,3"/>
  <line x1="26" y1="408" x2="64" y2="393" stroke="#95a5a6" stroke-width="0.5" stroke-dasharray="4,3"/>
  <line x1="26" y1="408" x2="100" y2="302" stroke="#95a5a6" stroke-width="0.5" stroke-dasharray="4,3"/>
  <line x1="183" y1="377" x2="240" y2="410" stroke="#95a5a6" stroke-width="0.5" stroke-dasharray="4,3"/>
  <line x1="183" y1="377" x2="290" y2="433" stroke="#95a5a6" stroke-width="0.5" stroke-dasharray="4,3"/>
  <line x1="183" y1="377" x2="64" y2="393" stroke="#95a5a6" stroke-width="0.5" stroke-dasharray="4,3"/>
  <line x1="183" y1="377" x2="100" y2="302" stroke="#95a5a6" stroke-width="0.5" stroke-dasharray="4,3"/>
  <line x1="452" y1="194" x2="490" y2="294" stroke="#95a5a6" stroke-width="0.5" stroke-dasharray="4,3"/>
  <line x1="452" y1="194" x2="390" y2="315" stroke="#95a5a6" stroke-width="0.5" stroke-dasharray="4,3"/>
  <line x1="304" y1="99" x2="364" y2="72" stroke="#95a5a6" stroke-width="0.5" stroke-dasharray="4,3"/>
  <line x1="240" y1="410" x2="290" y2="433" stroke="#95a5a6" stroke-width="0.5" stroke-dasharray="4,3"/>
  <line x1="240" y1="410" x2="320" y2="444" stroke="#95a5a6" stroke-width="0.5" stroke-dasharray="4,3"/>
  <line x1="114" y1="214" x2="119" y2="203" stroke="#95a5a6" stroke-width="0.5" stroke-dasharray="4,3"/>
  <line x1="114" y1="214" x2="147" y2="213" stroke="#95a5a6" stroke-width="0.5" stroke-dasharray="4,3"/>
  <line x1="114" y1="214" x2="100" y2="302" stroke="#95a5a6" stroke-width="0.5" stroke-dasharray="4,3"/>
  <line x1="119" y1="203" x2="147" y2="213" stroke="#95a5a6" stroke-width="0.5" stroke-dasharray="4,3"/>
  <line x1="119" y1="203" x2="100" y2="302" stroke="#95a5a6" stroke-width="0.5" stroke-dasharray="4,3"/>
  <line x1="372" y1="329" x2="290" y2="433" stroke="#95a5a6" stroke-width="0.5" stroke-dasharray="4,3"/>
  <line x1="372" y1="329" x2="490" y2="294" stroke="#95a5a6" stroke-width="0.5" stroke-dasharray="4,3"/>
  <line x1="372" y1="329" x2="320" y2="444" stroke="#95a5a6" stroke-width="0.5" stroke-dasharray="4,3"/>
  <line x1="372" y1="329" x2="390" y2="315" stroke="#95a5a6" stroke-width="0.5" stroke-dasharray="4,3"/>
  <line x1="290" y1="433" x2="320" y2="444" stroke="#95a5a6" stroke-width="0.5" stroke-dasharray="4,3"/>
  <line x1="64" y1="393" x2="100" y2="302" stroke="#95a5a6" stroke-width="0.5" stroke-dasharray="4,3"/>
  <line x1="490" y1="294" x2="390" y2="315" stroke="#95a5a6" stroke-width="0.5" stroke-dasharray="4,3"/>
  <line x1="147" y1="213" x2="100" y2="302" stroke="#95a5a6" stroke-width="0.5" stroke-dasharray="4,3"/>
  <line x1="320" y1="444" x2="390" y2="315" stroke="#95a5a6" stroke-width="0.5" stroke-dasharray="4,3"/>
  <circle cx="134" cy="32" r="4" fill="#e74c3c" stroke="#c0392b" stroke-width="1"/>
  <circle cx="301" cy="145" r="4" fill="#e74c3c" stroke="#c0392b" stroke-width="1"/>
  <circle cx="248" cy="91" r="4" fill="#e74c3c" stroke="#c0392b" stroke-width="1"/>
  <circle cx="124" cy="366" r="4" fill="#e74c3c" stroke="#c0392b" stroke-width="1"/>
  <circle cx="578" cy="64" r="4" fill="#e74c3c" stroke="#c0392b" stroke-width="1"/>
  <circle cx="452" cy="36" r="4" fill="#e74c3c" stroke="#c0392b" stroke-width="1"/>
  <circle cx="50" cy="67" r="4" fill="#e74c3c" stroke="#c0392b" stroke-width="1"/>
  <circle cx="243" cy="139" r="4" fill="#e74c3c" stroke="#c0392b" stroke-width="1"/>
  <circle cx="537" cy="328" r="4" fill="#e74c3c" stroke="#c0392b" stroke-width="1"/>
  <circle cx="47" cy="307" r="4" fill="#e74c3c" stroke="#c0392b" stroke-width="1"/>
  <circle cx="223" cy="386" r="4" fill="#e74c3c" stroke="#c0392b" stroke-width="1"/>
  <circle cx="578" cy="234" r="4" fill="#e74c3c" stroke="#c0392b" stroke-width="1"/>
  <circle cx="245" cy="249" r="4" fill="#e74c3c" stroke="#c0392b" stroke-width="1"/>
  <circle cx="304" cy="434" r="4" fill="#e74c3c" stroke="#c0392b" stroke-width="1"/>
  <circle cx="26" cy="408" r="4" fill="#e74c3c" stroke="#c0392b" stroke-width="1"/>
  <circle cx="183" cy="377" r="4" fill="#e74c3c" stroke="#c0392b" stroke-width="1"/>
  <circle cx="452" cy="194" r="4" fill="#e74c3c" stroke="#c0392b" stroke-width="1"/>
  <circle cx="304" cy="99" r="4" fill="#e74c3c" stroke="#c0392b" stroke-width="1"/>
  <circle cx="240" cy="410" r="4" fill="#e74c3c" stroke="#c0392b" stroke-width="1"/>
  <circle cx="364" cy="72" r="4" fill="#e74c3c" stroke="#c0392b" stroke-width="1"/>
  <circle cx="114" cy="214" r="4" fill="#e74c3c" stroke="#c0392b" stroke-width="1"/>
  <circle cx="119" cy="203" r="4" fill="#e74c3c" stroke="#c0392b" stroke-width="1"/>
  <circle cx="372" cy="329" r="4" fill="#e74c3c" stroke="#c0392b" stroke-width="1"/>
  <circle cx="290" cy="433" r="4" fill="#e74c3c" stroke="#c0392b" stroke-width="1"/>
  <circle cx="64" cy="393" r="4" fill="#e74c3c" stroke="#c0392b" stroke-width="1"/>
  <circle cx="490" cy="294" r="4" fill="#e74c3c" stroke="#c0392b" stroke-width="1"/>
  <circle cx="147" cy="213" r="4" fill="#e74c3c" stroke="#c0392b" stroke-width="1"/>
  <circle cx="100" cy="302" r="4" fill="#e74c3c" stroke="#c0392b" stroke-width="1"/>
  <circle cx="320" cy="444" r="4" fill="#e74c3c" stroke="#c0392b" stroke-width="1"/>
  <circle cx="390" cy="315" r="4" fill="#e74c3c" stroke="#c0392b" stroke-width="1"/>
</svg>